<?xml version="1.0" encoding="UTF-8"?>
<!DOCTYPE svg PUBLIC "-//W3C//DTD SVG 1.1//EN" "http://www.w3.org/Graphics/SVG/1.1/DTD/svg11.dtd">
<!-- Creator: CorelDRAW -->
<svg xmlns="http://www.w3.org/2000/svg" xml:space="preserve" width="594px" height="673px" version="1.1" style="shape-rendering:geometricPrecision; text-rendering:geometricPrecision; image-rendering:optimizeQuality; fill-rule:evenodd; clip-rule:evenodd"
viewBox="0 0 194.61 220.64"
 xmlns:xlink="http://www.w3.org/1999/xlink"
 xmlns:xodm="http://www.corel.com/coreldraw/odm/2003">
 <defs>
  <style type="text/css">
   <![CDATA[
    .fil0 {fill:white}
   ]]>
  </style>
 </defs>
 <g id="Слой_x0020_1">
  <metadata id="CorelCorpID_0Corel-Layer"/>
  <path class="fil0" d="M137.85 167.92c1.8,2.2 5.86,15.79 6.68,18.38 1.87,5.89 4.11,13.63 5.27,20.1l2.96 14.24c4.29,0.01 37.96,-0.35 39,-0.25 1.43,0.14 3.63,-1.6 2.58,-3.06 -1.59,-2.23 -8.42,-16.84 -10.35,-20.12l-0.23 -0.39c-5.95,-10.05 -12.29,-19.77 -18.39,-29.71 -3.58,-5.89 -7.87,-12.75 -10.76,-18.97l1.94 -1.2c0.92,-0.5 1.07,-0.59 1.89,-1.12 1.26,-0.83 1.79,-1.27 3.17,-2.38 5.88,-4.74 12.38,-11.7 16.14,-18.98 18.97,-36.83 11.25,-81.38 -15.22,-105.42 -19.88,-18.06 -40.45,-18.72 -72.7,-18.42 -6.72,0.05 -57.78,-1.27 -79.5,-0.2 -5.76,0.29 -9.82,7.07 -10.03,7.3 -0.74,0.8 0.12,92.9 0.12,102.94 0,36.65 0,73.31 0,109.96l24.42 -0.14c0.68,-7.93 1.78,-14.85 1.97,-23 0.19,-8.26 -0.39,-16.37 0.18,-24.68 2.06,-30.27 5.52,-53.79 17.27,-81.23 2.51,-5.87 5.18,-11.03 8.02,-16.1 2.92,-5.22 6.73,-9.73 9.5,-14.4 2.12,0.22 2.77,1.12 5.42,1.03 -0.39,-6.29 -5.8,-13.87 -6.87,-19.48 2.45,-1.51 9.57,-3.62 12.72,-3.16 3.81,0.57 8.2,2.58 12.41,3.03 9.46,1.03 19.42,1.54 28.94,2.26 5.03,0.39 9.9,0.12 12.48,3.45 2.42,3.1 2.82,7.06 5.96,9.9 3.54,3.22 19.91,4.48 25.97,5.33 -0.41,5.67 -1.78,10.38 -2.79,15.74 -0.67,3.53 -0.64,4.13 -2.37,6.42 -10.21,13.48 -13.32,11.44 -26.39,16.43 -13.65,5.21 -30.7,18.44 -36.34,32.82 6.15,-3.46 6.27,-5.63 16.07,-9.35 9.92,-3.77 10.99,0.33 14.96,7.24 2.82,4.92 15.85,30.52 15.9,35.19z"/>
  <path class="fil0" d="M47.57 174.9c0.95,12 7.44,24.01 12.17,34.28 2.24,4.87 -0.67,1.3 -1.68,11.43l57.47 0c-2.13,-9.76 -9.77,-13.17 -10.46,-14.13 -13.13,-3.35 -27.49,2.52 -39.22,-5.94 -4.44,-3.2 -7.63,-6.93 -10.78,-12.12 -1.67,-2.75 -6.51,-12.75 -6.72,-15.91 -1.22,0.86 -1.13,-1.45 -0.78,2.39z"/>
  <path class="fil0" d="M113.1 60.31c-1.56,0.37 -11.67,4.54 -13.07,6.11 1.99,1.07 12.9,2.75 16.11,2.3l-3.04 -8.41z"/>
 </g>
</svg>
